<svg width="16" height="16" viewBox="0 0 16 16" fill="none" xmlns="http://www.w3.org/2000/svg">
<rect x="0.5" y="0.5" width="15" height="15" fill="#051932" stroke="#FFFCEE"/>
<rect y="15.6" width="0.492308" height="0.4" fill="#7C5E99"/>
<rect width="0.492308" height="0.4" fill="#7C5E99"/>
<rect x="15.5077" width="0.492308" height="0.4" fill="#7C5E99"/>
<rect x="15.5077" y="15.6" width="0.492308" height="0.4" fill="#7C5E99"/>
<rect x="4.99927" y="3.60001" width="0.937729" height="1.02162" fill="#FFFFFC"/>
<rect x="4.06152" y="5.49728" width="0.937729" height="1.02162" fill="#FFFFFB"/>
<rect x="4.99927" y="5.49728" width="0.937729" height="1.02162" fill="#FFFFFE"/>
<rect x="5.93695" y="5.49728" width="0.937729" height="1.02162" fill="white"/>
<rect x="5.93695" y="4.62164" width="0.937729" height="1.02162" fill="white"/>
<rect x="6.87469" y="4.62164" width="0.937729" height="1.02162" fill="#FFFEFC"/>
<rect x="7.81244" y="4.62164" width="0.937729" height="1.02162" fill="#FFFEFB"/>
<rect x="8.28131" y="4.62164" width="0.937729" height="1.02162" fill="#FFFFFE"/>
<rect x="4.99927" y="4.62164" width="0.937729" height="1.02162" fill="white"/>
<rect x="4.06152" y="4.47568" width="0.937729" height="1.02162" fill="#FFFEFA"/>
<rect x="5.93695" y="3.60001" width="0.937729" height="1.02162" fill="white"/>
<rect x="6.87469" y="3.60001" width="0.937729" height="1.02162" fill="#FFFFFD"/>
<rect x="7.81244" y="3.60001" width="0.937729" height="1.02162" fill="#FFFEFC"/>
<rect x="8.75018" y="3.60001" width="0.937729" height="1.02162" fill="#FFFEFC"/>
<rect x="9.68793" y="3.60001" width="0.937729" height="1.02162" fill="#F8F8F8"/>
<rect x="10.6256" y="3.60001" width="0.937729" height="1.02162" fill="#FFFEFA"/>
<rect x="11.0945" y="4.47568" width="0.937729" height="1.02162" fill="#EFEFEF"/>
<rect x="11.0945" y="5.49728" width="0.937729" height="1.02162" fill="#FEFDFC"/>
<rect x="10.1567" y="5.49728" width="0.937729" height="1.02162" fill="#FFFFFE"/>
<rect x="10.1567" y="4.62164" width="0.937729" height="1.02162" fill="#F8F8F8"/>
<rect x="9.21906" y="4.62164" width="0.937729" height="1.02162" fill="#F8F8F8"/>
<rect x="9.21906" y="5.49728" width="0.937729" height="1.02162" fill="#F8F8F8"/>
<rect x="9.21906" y="6.37299" width="0.937729" height="1.02162" fill="#FFFFFE"/>
<rect x="9.35297" y="7.39459" width="0.937729" height="1.02162" fill="#EEEEEE"/>
<rect x="8.48224" y="7.39459" width="0.937729" height="1.02162" fill="#EFEFEF"/>
<rect x="7.54449" y="7.39459" width="0.937729" height="1.02162" fill="#EFEFEF"/>
<rect x="6.60681" y="7.39459" width="0.937729" height="1.02162" fill="#EEEEEE"/>
<rect x="6.60681" y="8.41623" width="0.937729" height="1.02162" fill="#FFFFFE"/>
<rect x="7.54449" y="8.41623" width="0.937729" height="1.02162" fill="#EEEEEE"/>
<rect x="8.48224" y="8.41623" width="0.937729" height="1.02162" fill="#FFFEFC"/>
<rect x="6.60681" y="10.3135" width="0.937729" height="1.02162" fill="#FFFEFD"/>
<rect x="6.60681" y="11.3351" width="0.937729" height="1.02162" fill="#FFFFFE"/>
<rect x="7.54449" y="11.3351" width="0.937729" height="1.02162" fill="#DADAD9"/>
<rect x="7.54449" y="10.3135" width="0.937729" height="1.02162" fill="#EEEEEE"/>
<rect x="8.48224" y="10.3135" width="0.937729" height="1.02162" fill="#EEEEEE"/>
<rect x="8.48224" y="11.3351" width="0.937729" height="1.02162" fill="#FEFFFE"/>
<rect x="10.2907" y="7.39459" width="0.937729" height="1.02162" fill="#EEEEEE"/>
<rect x="10.1567" y="6.37299" width="0.937729" height="1.02162" fill="#EEEEEE"/>
<rect x="11.0945" y="6.37299" width="0.937729" height="1.02162" fill="#DFDFDF"/>
</svg>
